<svg width="220" height="40" viewBox="0 0 220 40" fill="none" xmlns="http://www.w3.org/2000/svg">
<path d="M78.0516 2.44897L64.7664 36.3265H60.1864L46.9119 2.44897H52.9833L62.4606 26.8459L71.9802 2.44897H78.0516Z" fill="#295788"/>
<path d="M107.133 19.3877C107.133 12.7249 102.857 7.82665 96.3023 7.82665C89.7474 7.82665 85.3146 12.7249 85.3146 19.3877C85.3146 26.0506 89.7369 30.9488 96.3023 30.9488C102.868 30.9488 107.133 26.0506 107.133 19.3877ZM79.6692 19.3877C79.6692 9.33462 86.4855 2.04077 96.3023 2.04077C106.119 2.04077 112.831 9.33462 112.831 19.3877C112.831 29.4408 106.119 36.7346 96.3023 36.7346C86.4855 36.7346 79.6692 29.4408 79.6692 19.3877Z" fill="#295788"/>
<path d="M123.75 2.44897H118.088V36.3265H123.75V2.44897Z" fill="#295788"/>
<path d="M154.89 7.76709H144.622V36.3265H138.871V7.76709H128.603V2.44897H154.89V7.76709Z" fill="#295788"/>
<path d="M186.434 2.44897V36.3265H180.779V22.202H165.397V36.3265H159.743V2.44897H165.397V16.5735H180.779V2.44897H186.434Z" fill="#295788"/>
<path d="M208.126 21.7311V36.3265H202.405V21.8916L190.478 2.44897H197.066L205.239 15.7389L213.423 2.44897H220L208.126 21.7311Z" fill="#295788"/>
<path d="M8.89706 18.2618V0C3.58368 1.82724 0 6.96704 0 12.7587V31.0204C5.31338 29.1932 8.89706 24.0534 8.89706 18.2618Z" fill="#E84034"/>
<path d="M17.8534 31.0205H0C1.78848 36.3874 6.81922 40.0001 12.4775 40.0001H30.3309C28.5424 34.6332 23.5117 31.0205 17.8534 31.0205Z" fill="#E84034"/>
<path d="M39.6323 8.97949C34.0774 10.8067 30.3308 15.9465 30.3308 21.7381V39.9999C35.8857 38.162 39.6323 33.0329 39.6323 27.2412V8.97949Z" fill="#E84034"/>
<path d="M21.5408 8.97959H39.6323C37.8199 3.62316 32.7327 0 26.999 0H8.89697C10.7093 5.36687 15.8071 8.97959 21.5408 8.97959Z" fill="#E84034"/>
</svg>
